<?xml version="1.0" encoding="utf-8"?>
<!-- Generator: Adobe Illustrator 16.0.0, SVG Export Plug-In . SVG Version: 6.00 Build 0)  -->
<!DOCTYPE svg PUBLIC "-//W3C//DTD SVG 1.1//EN" "http://www.w3.org/Graphics/SVG/1.1/DTD/svg11.dtd">
<svg version="1.1" id="Calque_1" xmlns="http://www.w3.org/2000/svg" xmlns:xlink="http://www.w3.org/1999/xlink" x="0px" y="0px"
	 width="278.986px" height="133.493px" viewBox="0 0 278.986 133.493" enable-background="new 0 0 278.986 133.493"
	 xml:space="preserve">
<g>
	<g>
		<g>
			<g>
				<g>
					
						<line fill="none" stroke="#FFFFFF" stroke-width="1.5443" stroke-miterlimit="3.8637" x1="138.779" y1="69.723" x2="189.881" y2="45.338"/>
					
						<line fill="none" stroke="#FFFFFF" stroke-width="1.5443" stroke-miterlimit="3.8637" x1="138.779" y1="69.723" x2="189.881" y2="45.338"/>
				</g>
				<g>
					<path fill="none" stroke="#FFFFFF" stroke-width="1.5443" stroke-miterlimit="3.8637" d="M138.789,69.723"/>
				</g>
				
					<line fill="none" stroke="#FFFFFF" stroke-width="1.5443" stroke-miterlimit="3.8637" x1="138.789" y1="69.723" x2="173.757" y2="25.72"/>
				<g>
					
						<line fill="none" stroke="#FFFFFF" stroke-width="1.5443" stroke-miterlimit="3.8637" x1="138.779" y1="69.713" x2="151.413" y2="14.91"/>
				</g>
				<g>
					
						<line fill="none" stroke="#FFFFFF" stroke-width="1.5443" stroke-miterlimit="3.8637" x1="138.779" y1="69.713" x2="126.183" y2="14.906"/>
				</g>
				<g>
					
						<line fill="none" stroke="#FFFFFF" stroke-width="1.5443" stroke-miterlimit="3.8637" x1="138.773" y1="69.723" x2="103.453" y2="25.766"/>
				</g>
				<g>
					
						<line fill="none" stroke="#FFFFFF" stroke-width="1.5443" stroke-miterlimit="3.8637" x1="138.773" y1="69.723" x2="87.936" y2="44.852"/>
				</g>
				
					<line fill="none" stroke="#FFFFFF" stroke-width="1.5443" stroke-miterlimit="3.8637" x1="138.755" y1="125.896" x2="138.755" y2="105.531"/>
			</g>
		</g>
		<g>
			<path fill="none" stroke="#FFFFFF" stroke-width="1.5443" stroke-miterlimit="3.8637" d="M182.536,105.51
				c-10.4,12.497-26.137,20.462-43.747,20.462c-17.602,0-33.329-7.955-43.728-20.437"/>
			<path fill="none" stroke="#FFFFFF" stroke-width="1.5443" stroke-miterlimit="3.8637" d="M82.095,69.741
				c0-31.055,25.383-56.231,56.694-56.231s56.692,25.176,56.692,56.231"/>
			<path fill="none" stroke="#000000" stroke-width="2.4619" stroke-miterlimit="3.8637" d="M138.789,69.741"/>
		</g>
	</g>
</g>
<g>
	
		<rect x="7.469" y="69.757" fill="none" stroke="#FFFFFF" stroke-width="1.5" stroke-miterlimit="3.8637" width="262.638" height="35.023"/>
	<g>
		<path fill="#FFFFFF" d="M25.094,80.597c1.175-0.174,2.546-0.305,4.047-0.305c2.72,0,4.656,0.631,5.94,1.828
			c1.328,1.196,2.089,2.894,2.089,5.266c0,2.394-0.761,4.352-2.11,5.7c-1.393,1.371-3.656,2.111-6.506,2.111
			c-1.371,0-2.48-0.044-3.46-0.175V80.597z M27.009,93.587c0.479,0.087,1.175,0.087,1.915,0.087
			c4.047,0.021,6.245-2.263,6.245-6.223c0.021-3.46-1.937-5.658-5.94-5.658c-0.979,0-1.719,0.088-2.219,0.196V93.587z"/>
		<path fill="#FFFFFF" d="M45.983,95.306c-3.895,0-6.593-3.003-6.593-7.441c0-4.656,2.872-7.703,6.789-7.703
			c4.025,0,6.615,3.068,6.615,7.42c0,5.026-3.068,7.725-6.789,7.725H45.983z M46.092,93.761c3.002,0,4.7-2.764,4.7-6.093
			c0-2.915-1.523-5.962-4.678-5.962s-4.722,2.938-4.722,6.114c0,3.09,1.697,5.94,4.678,5.94H46.092z"/>
		<path fill="#FFFFFF" d="M58.887,80.401h1.915v9.813c0,3.896-1.915,5.092-4.438,5.092c-0.718,0-1.567-0.152-2.024-0.348
			l0.261-1.545c0.392,0.152,0.958,0.282,1.61,0.282c1.697,0,2.676-0.762,2.676-3.634V80.401z"/>
		<path fill="#FFFFFF" d="M70.332,95.306c-3.895,0-6.593-3.003-6.593-7.441c0-4.656,2.873-7.703,6.789-7.703
			c4.025,0,6.615,3.068,6.615,7.42c0,5.026-3.068,7.725-6.789,7.725H70.332z M70.44,93.761c3.003,0,4.7-2.764,4.7-6.093
			c0-2.915-1.523-5.962-4.678-5.962c-3.155,0-4.722,2.938-4.722,6.114c0,3.09,1.697,5.94,4.678,5.94H70.44z"/>
		<path fill="#FFFFFF" d="M93.049,95.067v-6.223l-4.656-8.443h2.176l2.067,4.048c0.544,1.109,1.001,2.002,1.458,3.024h0.043
			c0.392-0.958,0.914-1.915,1.48-3.024l2.11-4.048h2.132l-4.896,8.421v6.245H93.049z"/>
		<path fill="#FFFFFF" d="M107.149,95.306c-3.895,0-6.593-3.003-6.593-7.441c0-4.656,2.873-7.703,6.789-7.703
			c4.025,0,6.615,3.068,6.615,7.42c0,5.026-3.068,7.725-6.789,7.725H107.149z M107.258,93.761c3.003,0,4.7-2.764,4.7-6.093
			c0-2.915-1.523-5.962-4.678-5.962c-3.155,0-4.722,2.938-4.722,6.114c0,3.09,1.697,5.94,4.678,5.94H107.258z"/>
		<path fill="#FFFFFF" d="M116.833,92.76c0.849,0.522,2.067,0.936,3.373,0.936c1.936,0,3.068-1.001,3.068-2.48
			c0-1.37-0.783-2.176-2.763-2.915c-2.394-0.827-3.874-2.089-3.874-4.135c0-2.284,1.893-3.981,4.743-3.981
			c1.48,0,2.59,0.348,3.221,0.696l-0.521,1.566c-0.457-0.283-1.437-0.696-2.764-0.696c-2.002,0-2.764,1.196-2.764,2.197
			c0,1.35,0.892,2.023,2.916,2.808c2.48,0.979,3.721,2.153,3.721,4.308c0,2.241-1.654,4.222-5.114,4.222
			c-1.414,0-2.959-0.436-3.742-0.958L116.833,92.76z"/>
		<path fill="#FFFFFF" d="M136.024,88.191h-5.679v5.287h6.354v1.589h-8.269V80.401h7.942v1.589h-6.027v4.635h5.679V88.191z"/>
		<path fill="#FFFFFF" d="M141.704,80.401v14.666h-1.915V80.401H141.704z"/>
		<path fill="#FFFFFF" d="M145.665,80.401h1.893v7.072h0.064c0.393-0.565,0.784-1.088,1.154-1.566l4.482-5.506h2.35l-5.309,6.224
			l5.722,8.442h-2.241l-4.809-7.202l-1.414,1.61v5.592h-1.893V80.401z"/>
		<path fill="#FFFFFF" d="M160.7,90.454l-1.523,4.613h-1.958l4.983-14.666h2.284l5.005,14.666h-2.023l-1.567-4.613H160.7z
			 M165.509,88.974l-1.457-4.221c-0.305-0.958-0.523-1.828-0.74-2.677h-0.065c-0.196,0.849-0.435,1.763-0.718,2.654l-1.437,4.243
			H165.509z"/>
		<path fill="#FFFFFF" d="M172.298,95.067V80.401h2.09l4.678,7.42c1.066,1.72,1.937,3.265,2.611,4.766l0.064-0.021
			c-0.174-1.959-0.217-3.743-0.217-6.006v-6.158h1.783v14.666h-1.914l-4.656-7.441c-1.023-1.632-2.002-3.308-2.721-4.896
			l-0.064,0.021c0.108,1.85,0.131,3.611,0.131,6.049v6.267H172.298z"/>
		<path fill="#FFFFFF" d="M197.8,80.619c0.827-0.195,2.154-0.326,3.46-0.326c1.894,0,3.112,0.326,4.004,1.066
			c0.761,0.565,1.24,1.436,1.24,2.589c0,1.437-0.958,2.677-2.48,3.221v0.065c1.393,0.326,3.024,1.479,3.024,3.655
			c0,1.262-0.5,2.22-1.262,2.938c-1.002,0.936-2.654,1.371-5.049,1.371c-1.305,0-2.307-0.087-2.938-0.175V80.619z M199.693,86.625
			h1.719c1.979,0,3.155-1.066,3.155-2.48c0-1.697-1.284-2.394-3.199-2.394c-0.87,0-1.37,0.065-1.675,0.131V86.625z M199.693,93.63
			c0.392,0.065,0.913,0.088,1.589,0.088c1.957,0,3.764-0.719,3.764-2.851c0-1.98-1.719-2.829-3.786-2.829h-1.566V93.63z"/>
		<path fill="#FFFFFF" d="M212.14,80.401v8.704c0,3.264,1.458,4.656,3.416,4.656c2.154,0,3.568-1.436,3.568-4.656v-8.704h1.916
			v8.573c0,4.504-2.373,6.332-5.549,6.332c-3.003,0-5.266-1.697-5.266-6.267v-8.639H212.14z"/>
		<path fill="#FFFFFF" d="M224.956,80.597c1.176-0.174,2.546-0.305,4.047-0.305c2.721,0,4.656,0.631,5.94,1.828
			c1.327,1.196,2.089,2.894,2.089,5.266c0,2.394-0.762,4.352-2.11,5.7c-1.393,1.371-3.655,2.111-6.506,2.111
			c-1.371,0-2.48-0.044-3.46-0.175V80.597z M226.871,93.587c0.479,0.087,1.175,0.087,1.915,0.087
			c4.047,0.021,6.244-2.263,6.244-6.223c0.021-3.46-1.936-5.658-5.939-5.658c-0.979,0-1.719,0.088-2.22,0.196V93.587z"/>
		<path fill="#FFFFFF" d="M245.846,95.306c-3.896,0-6.593-3.003-6.593-7.441c0-4.656,2.872-7.703,6.789-7.703
			c4.025,0,6.614,3.068,6.614,7.42c0,5.026-3.068,7.725-6.789,7.725H245.846z M245.954,93.761c3.003,0,4.7-2.764,4.7-6.093
			c0-2.915-1.522-5.962-4.679-5.962c-3.154,0-4.721,2.938-4.721,6.114c0,3.09,1.697,5.94,4.678,5.94H245.954z"/>
	</g>
</g>
<g>
</g>
<g>
</g>
<g>
</g>
<g>
</g>
<g>
</g>
<g>
</g>
</svg>
